<svg xmlns="http://www.w3.org/2000/svg" viewBox="0 0 48 48">
  <path fill="#EA4335" d="M24 9.5c3.5 0 6.6 1.2 9.1 3.6l6.8-6.8C35.8 2.5 30.3 0 24 0 14.6 0 6.5 5.4 2.5 13.3l7.9 6.1C12.2 13.5 17.6 9.5 24 9.5z"/>
  <path fill="#4285F4" d="M46.9 24.6c0-1.6-.1-3.1-.4-4.6H24v9h12.9c-.6 3-2.3 5.5-4.9 7.1l7.6 5.9c4.5-4.1 7.3-10.2 7.3-17.4z"/>
  <path fill="#FBBC05" d="M10.4 28.6c-.5-1.4-.8-2.9-.8-4.6s.3-3.2.8-4.6l-7.9-6.1C.9 16.5 0 20.2 0 24s.9 7.5 2.5 10.7l7.9-6.1z"/>
  <path fill="#34A853" d="M24 48c6.5 0 11.9-2.1 15.9-5.8l-7.6-5.9c-2.1 1.4-4.8 2.2-8.3 2.2-6.4 0-11.8-4-13.7-9.9l-7.9 6.1C6.5 42.6 14.6 48 24 48z"/>
</svg>
